/* XPM */
static char * atfblastusb_xpm[] = {
"44 44 4 1",
" 	c #FFFFFFFFFFFF",
".	c #000000000000",
"X	c #999299929992",
"o	c #666C666C666C",
"                                            ",
"                                            ",
"    ..........  ..........                  ",
"  ...XXXXXXXX....XXXXXXXX...                ",
"  ...XXXXXXXXXXXXXXXXXXXX...                ",
"    .XXXXXXXXXXXXXXXXXXXX.                  ",
"  ...XXXXXoXoXoXoXXooXXXX...                ",
"  ...XXXXooooooooooo oXXX...                ",
"    .XXXXXo o o oXXo oooX.                  ",
"  ...XXXXooooooooooo oXXX...                ",
"  ...XXXXXo o o oXXooXXXX...        .       ",
"    .XooooooooooooXXXXXXX.          .       ",
"  ...XXXXXo o o oXXooXXXX...       ...      ",
"  ...XXXXooooooooooo oXXX...       ...      ",
"    .XXXXXo o o oXXo oooX.        .....     ",
"  ...XXXXooooooooooo oXXX...      .....     ",
"  ...XXXXXo o o oXXooXXXX...        .       ",
"    .XooooooooooooXXXXXXX.          .       ",
"  ...XXXXXo o o oXXooXXXX...        .       ",
"  ...XXXXooooooooooo oXXX...        . ..... ",
"    .XXXXXo o o oXXo oooX.          . ..... ",
"  ...XXXXooooooooooo oXXX...  ...   . ..... ",
"  ...XXXXXo o o oXXooXXXX... .....  . ..... ",
"    .XooooooooooooXXXXXXX.   .....  . ..... ",
"  ...XXXXXo o o oXXooXXXX... .....  .   .   ",
"  ...XXXXooooooooooo oXXX...  ...   .   .   ",
"    .XXXXXo o o oXXo oooX.     .    .  .    ",
"  ...XXXXooooooooooo oXXX...   .    . .     ",
"  ...XXXXXoXoXoXoXXooXXXX...    .   ..      ",
"    .XXXXXXXXXXXXXXXXXXXX.       .  ..      ",
"  ...XXXXXXXXXXXXXXXXXXXX...      . .       ",
"  ...XXXXXXXXXXXXXXXXXXXX...       ..       ",
"    ......................          .       ",
"                                    .       ",
"                                    .       ",
"                                    .       ",
"                                    .       ",
"                                    .       ",
"                                   ...      ",
"                                  .....     ",
"                                  .....     ",
"                                  .....     ",
"                                   ...      ",
"                                            "};
